<svg width="65" height="71" xmlns="http://www.w3.org/2000/svg" xmlns:xlink="http://www.w3.org/1999/xlink" xml:space="preserve" overflow="hidden"><g transform="translate(-3193 -77)"><path d="M3221.63 79.9137 3222.19 84.302C3221.97 84.304 3221.75 84.3206 3221.53 84.3452 3213.19 85.3739 3205.6 89.6674 3200.42 96.2882 3195.24 102.87 3192.92 111.254 3193.97 119.562 3195.02 127.874 3199.36 135.416 3206.01 140.501 3212.67 145.585 3221.06 147.856 3229.37 146.819 3237.69 145.782 3245.26 141.522 3250.47 134.957 3255.66 128.437 3258.02 120.106 3257.02 111.83L3257.01 111.785C3256.63 108.672 3253.8 106.46 3250.68 106.842 3247.57 107.224 3245.36 110.057 3245.74 113.171 3247.04 124.106 3239.08 134.144 3228 135.545 3216.84 136.956 3206.62 129.147 3205.23 118.138 3203.84 107.13 3211.79 97.0221 3222.95 95.6109 3223.17 95.5834 3223.39 95.5445 3223.6 95.4916L3224.28 100.863C3224.38 101.663 3224.95 102.327 3225.73 102.549 3226.5 102.775 3227.33 102.518 3227.85 101.895L3237.63 90.0121 3237.63 90.0152C3237.99 89.5841 3238.15 89.0285 3238.08 88.4764 3238.01 87.9244 3237.71 87.4237 3237.26 87.0944L3224.83 78.0245 3224.83 78.027C3224.18 77.5514 3223.3 77.5101 3222.61 77.9185 3221.92 78.3293 3221.53 79.1133 3221.63 79.9133Z" fill="#7F7F7F" fill-rule="evenodd"/></g></svg>