<svg width="71" height="65" xmlns="http://www.w3.org/2000/svg" xmlns:xlink="http://www.w3.org/1999/xlink" xml:space="preserve" overflow="hidden"><defs><clipPath id="clip0"><rect x="1049" y="636" width="71" height="65"/></clipPath></defs><g clip-path="url(#clip0)" transform="translate(-1049 -636)"><path d="M1089.79 636.45 1067 653.681 1067 683.317 1089.79 700.546C1090.38 701.046 1091.22 701.138 1091.91 700.796 1092.61 700.448 1093.04 699.724 1093 698.951L1093 637.996C1093.02 637.236 1092.58 636.532 1091.89 636.196 1091.2 635.859 1090.38 635.965 1089.79 636.451L1089.79 636.45Z" fill="#595959" fill-rule="evenodd"/><path d="M1049 655.968 1049 682.031C1048.99 682.556 1049.2 683.06 1049.56 683.433 1049.91 683.798 1050.4 684.006 1050.9 684L1063 684 1063 654 1050.9 654C1050.4 653.994 1049.91 654.201 1049.56 654.568 1049.2 654.94 1048.99 655.445 1049 655.968L1049 655.968Z" fill="#595959" fill-rule="evenodd"/><path d="M1100.21 657.501C1098.96 658.396 1098.63 660.199 1099.45 661.534 1102.31 666.151 1102.31 672.164 1099.45 676.774 1098.82 678.098 1099.22 679.723 1100.38 680.533 1101.55 681.342 1103.09 681.078 1103.96 679.913 1108.01 673.353 1108.01 664.82 1103.96 658.254 1103.11 656.943 1101.44 656.606 1100.21 657.5L1100.21 657.501Z" fill="#595959" fill-rule="evenodd"/><path d="M1114.43 650.419C1114.01 649.728 1113.34 649.242 1112.55 649.069 1111.77 648.896 1110.95 649.051 1110.28 649.5 1109.62 649.951 1109.17 650.654 1109.04 651.442 1108.91 652.237 1109.11 653.044 1109.6 653.686 1112.57 658.072 1114.17 663.255 1114.17 668.562 1114.17 673.868 1112.57 679.05 1109.6 683.438 1108.68 684.756 1108.99 686.569 1110.31 687.493 1110.78 687.807 1111.33 687.98 1111.89 687.998 1112.9 688.035 1113.85 687.554 1114.43 686.723 1118.06 681.367 1120 675.044 1120 668.58 1120 662.109 1118.06 655.786 1114.43 650.437L1114.43 650.419Z" fill="#595959" fill-rule="evenodd"/></g></svg>