<?xml version="1.0"?>
<svg width="1440" height="2560" xmlns="http://www.w3.org/2000/svg" xmlns:svg="http://www.w3.org/2000/svg" enable-background="new 0 0 1440 2560" version="1.1" xml:space="preserve">
 <g class="layer">
  <title>Layer 1</title>
  <g id="svg_1">
   <path d="m825.28,1777.32c6.27,-165.12 27.64,-262.96 130.06,-410.4c12.79,20.39 35.2,34.2 60.74,34.2l259.2,0c39.39,0 72,-32.61 72,-72l0,-518.4c0,-39.39 -32.61,-72 -72,-72l-259.2,0c-24.83,0 -46.87,12.95 -59.84,32.4c-14.98,-12.07 -28.84,-22.9 -43.21,-31.5c-23.74,-14.2 -50.58,-22.74 -87.29,-26.55c-73.43,-7.6 -193.94,-1.98 -472.06,-3.15c-6.53,0.15 -12.99,2.55 -18,6.75c-55.97,45.66 -80.27,89.39 -91.35,138.6c-5.44,1.68 -10.37,5.02 -13.95,9.45c-41.85,52.32 -57,112.67 -47.25,164.7c-4.01,1.86 -7.58,4.66 -10.35,8.1c-48.89,57.36 -58.76,130.8 -41.4,186.3c-29.86,35.33 -42.21,76.77 -37.8,115.2c7.04,48.65 42.37,97.55 87.3,105.3l370.8,0c-22.16,145.85 -7.47,279.9 41.86,366.75c26.63,46.9 65.46,73.13 103.94,78.76c67.53,8.92 122.02,-33.45 127.8,-112.51l0,0zm-107.54,55.8c-27.89,2.91 -58.97,-18.76 -74.25,-50.4c-42.12,-74.17 -59.6,-212.89 -31.05,-361.8c3.17,-16.61 -11.44,-34.23 -28.35,-34.2l-395.1,0c-21.62,-11.09 -35.52,-30.19 -38.25,-54c-2.65,-23.06 6.73,-50.19 30.15,-75.6l202.05,0c15.22,0 29.25,-13.58 29.25,-28.8c0,-15.22 -14.04,-29.02 -29.25,-28.8l-198.45,0c-8.65,-31.81 -2,-74.14 26.55,-115.2l171.9,0c15.22,0 29.25,-13.58 29.25,-28.8c0,-15.22 -14.04,-29.02 -29.25,-28.8l-140.85,0c-8.65,-31.81 -2,-74.14 26.55,-115.2l114.3,0c15.22,0 29.25,-13.58 29.25,-28.8c0,-15.22 -14.04,-29.02 -29.25,-28.8l-79.65,0c8.88,-30.81 25.12,-54.44 62.55,-86.4c267.66,0.92 391.78,-3.3 454.05,3.15c31.75,3.29 46.66,7.96 63.45,18c15.13,9.05 33.65,25.02 60.75,46.8l0,449.1c-133.82,170.2 -169.78,313.29 -176.4,490.5c-8.43,38.61 -28.26,55.79 -49.95,58.05l0,0zm557.55,-489.6l-259.2,0c-8.48,0 -14.4,-5.92 -14.4,-14.4l0,-518.4c0,-8.47 5.92,-14.4 14.4,-14.4l259.2,0c8.48,0 14.4,5.93 14.4,14.4l0,518.4c0,8.48 -5.92,14.4 -14.4,14.4l0,0zm-129.6,-359.55c23.86,0 43.2,-19.34 43.2,-43.2s-19.34,-43.2 -43.2,-43.2c-23.86,0 -43.2,19.34 -43.2,43.2s19.34,43.2 43.2,43.2z" id="svg_2"/>
  </g>
 </g>
</svg>