<svg width="78" height="68" xmlns="http://www.w3.org/2000/svg" xmlns:xlink="http://www.w3.org/1999/xlink" xml:space="preserve" overflow="hidden"><defs><clipPath id="clip0"><rect x="93" y="782" width="78" height="68"/></clipPath></defs><g clip-path="url(#clip0)" transform="translate(-93 -782)"><path d="M119.867 812.206 144.133 812.206C146.049 812.206 147.6 813.75 147.6 815.658 147.6 817.566 146.049 819.11 144.133 819.11L119.867 819.11C117.951 819.11 116.4 817.566 116.4 815.658 116.4 813.75 117.951 812.206 119.867 812.206ZM112.067 798.397 151.933 798.397C153.849 798.397 155.4 799.941 155.4 801.85 155.4 803.758 153.849 805.302 151.933 805.302L112.067 805.302C110.151 805.302 108.6 803.758 108.6 801.85 108.6 799.941 110.151 798.397 112.067 798.397ZM105.133 788.904C102.263 788.908 99.9368 791.224 99.9335 794.082L99.9335 823.425C99.9368 826.284 102.263 828.6 105.133 828.603L108.6 828.603 108.6 838.275 115.533 834.449C122.48 830.619 130.287 828.61 138.226 828.603L158.867 828.603C161.737 828.6 164.063 826.284 164.067 823.425L164.067 794.082C164.063 791.224 161.737 788.908 158.867 788.904ZM105.133 782 158.867 782C165.566 782.007 170.993 787.411 171 794.082L171 823.425C170.993 830.097 165.566 835.501 158.867 835.507L138.226 835.507C131.462 835.511 124.81 837.227 118.892 840.487L101.667 850 101.667 835.005C96.5278 833.471 93.0069 828.765 93.0002 823.425L93.0002 794.082C93.0069 787.411 98.4337 782.007 105.133 782Z" fill="#595959" fill-rule="evenodd"/></g></svg>