<svg width="181" height="181" xmlns="http://www.w3.org/2000/svg" xmlns:xlink="http://www.w3.org/1999/xlink" xml:space="preserve" overflow="hidden"><defs><clipPath id="clip0"><rect x="3174" y="1784" width="181" height="181"/></clipPath><linearGradient x1="3174" y1="1874.5" x2="3355" y2="1874.5" gradientUnits="userSpaceOnUse" spreadMethod="reflect" id="fill1"><stop offset="0" stop-color="#422478"/><stop offset="0.6" stop-color="#422478"/><stop offset="1" stop-color="#953381"/></linearGradient></defs><g clip-path="url(#clip0)" transform="translate(-3174 -1784)"><path d="M3174 1874.5C3174 1824.52 3214.52 1784 3264.5 1784 3314.48 1784 3355 1824.52 3355 1874.5 3355 1924.48 3314.48 1965 3264.5 1965 3214.52 1965 3174 1924.48 3174 1874.5Z" fill="url(#fill1)" fill-rule="evenodd"/><path d="M3269.83 1871 3230.6 1817.29C3228.38 1814.41 3224.28 1813.79 3221.31 1815.89 3218.44 1818.09 3217.82 1822.18 3219.92 1825.13L3259.21 1878.77Z" fill="#FFFFFF" fill-rule="evenodd"/><path d="M3265.53 1903.97C3265.39 1903.68 3265.29 1903.39 3265.22 1903.08 3265.22 1907.37 3266.33 1911.6 3268.46 1915.33 3272.88 1922.19 3279.67 1927.18 3287.53 1929.35 3281.35 1925.81 3275.97 1921.02 3271.75 1915.28 3269.19 1911.8 3267.1 1908 3265.53 1903.97Z" fill="#FFFFFF" fill-rule="evenodd"/><path d="M3267.63 1895.59C3267.87 1895.74 3268.14 1895.84 3268.42 1895.88 3268.94 1895.96 3269.47 1895.83 3269.89 1895.5L3270.43 1895.1 3270.92 1894.78 3281.55 1887 3282.05 1886.6 3282.55 1886.24C3283.22 1885.75 3283.52 1884.91 3283.32 1884.11L3283.11 1883.36 3282.9 1882.64 3281.55 1877.9 3280.67 1874.8C3280.32 1873.51 3279.36 1872.47 3278.09 1872.03 3276.83 1871.6 3275.42 1871.82 3274.35 1872.62L3259.38 1883.57C3258.3 1884.35 3257.66 1885.62 3257.7 1886.96 3257.73 1888.3 3258.42 1889.53 3259.55 1890.25L3262.24 1892.03 3266.35 1894.75 3266.97 1895.17Z" fill="#FFFFFF" fill-rule="evenodd"/><path d="M3308.31 1927.76 3305.8 1914.98C3305.7 1914.56 3305.65 1914.15 3305.55 1913.78 3305.55 1913.76 3305.53 1913.73 3305.51 1913.73 3303.28 1903.48 3297.62 1894.3 3289.46 1887.71 3288.71 1887.11 3287.96 1886.51 3287.16 1885.95 3286.86 1887.4 3286 1888.68 3284.77 1889.51L3284.03 1890.11 3273.27 1897.99 3272.6 1898.41 3272.23 1898.71C3271.08 1899.58 3269.64 1899.97 3268.21 1899.81 3268.51 1900.74 3268.85 1901.64 3269.24 1902.54 3270.68 1906.24 3272.61 1909.73 3274.96 1912.93 3278.85 1918.24 3283.8 1922.66 3289.51 1925.93 3289.75 1926.09 3289.99 1926.23 3290.24 1926.36L3301.66 1932.62 3306.47 1935.25C3306.67 1935.36 3306.89 1935.44 3307.12 1935.47 3307.63 1935.56 3308.17 1935.42 3308.58 1935.1 3309.21 1934.66 3309.52 1933.88 3309.36 1933.13Z" fill="#FFFFFF" fill-rule="evenodd"/><path d="M3308.74 1910.22 3309.33 1910.31C3309.12 1903.17 3306.49 1896.32 3301.88 1890.87 3298.99 1887.73 3295.33 1885.4 3291.26 1884.1 3291.51 1884.26 3291.75 1884.44 3291.98 1884.65 3300.07 1891.24 3305.93 1900.17 3308.74 1910.22Z" fill="#FFFFFF" fill-rule="evenodd"/><path d="M3274.34 1835.65 3272.86 1831.49C3272.58 1830.84 3271.98 1830.39 3271.29 1830.28 3270.59 1830.18 3269.89 1830.43 3269.42 1830.96L3266.75 1834.47 3262.59 1835.95C3261.91 1836.2 3261.41 1836.8 3261.3 1837.52 3261.18 1838.24 3261.48 1838.96 3262.06 1839.4L3265.57 1842.11 3267.05 1846.23C3267.3 1846.91 3267.9 1847.41 3268.62 1847.52 3269.34 1847.63 3270.06 1847.34 3270.5 1846.76L3273.16 1843.28 3277.33 1841.76C3278.01 1841.52 3278.51 1840.92 3278.62 1840.2 3278.73 1839.48 3278.44 1838.76 3277.86 1838.32Z" fill="#FFFFFF" fill-rule="evenodd"/><path d="M3249.63 1903.07 3245.61 1900 3243.9 1895.25C3243.66 1894.56 3243.06 1894.07 3242.34 1893.96 3241.62 1893.86 3240.9 1894.14 3240.46 1894.71L3237.39 1898.73 3232.67 1900.44C3232 1900.67 3231.5 1901.26 3231.39 1901.97 3231.28 1902.69 3231.57 1903.41 3232.15 1903.85L3236.12 1906.91 3237.83 1911.67C3238.08 1912.34 3238.68 1912.84 3239.4 1912.95 3240.11 1913.06 3240.84 1912.78 3241.28 1912.2L3244.34 1908.18 3249.1 1906.48C3249.78 1906.23 3250.27 1905.63 3250.38 1904.91 3250.5 1904.2 3250.2 1903.49 3249.63 1903.07Z" fill="#FFFFFF" fill-rule="evenodd"/><path d="M3289.95 1856.31 3292.78 1858.47 3294.02 1861.87C3294.26 1862.55 3294.86 1863.04 3295.57 1863.15 3296.28 1863.26 3296.99 1862.97 3297.43 1862.4L3299.63 1859.53 3302.99 1858.33C3303.67 1858.08 3304.17 1857.48 3304.28 1856.77 3304.4 1856.05 3304.1 1855.32 3303.52 1854.88L3300.69 1852.72 3299.45 1849.32C3299.18 1848.68 3298.58 1848.22 3297.9 1848.12 3297.2 1848.01 3296.5 1848.26 3296.05 1848.79L3293.84 1851.66 3290.48 1852.86C3289.8 1853.11 3289.3 1853.71 3289.19 1854.43 3289.08 1855.15 3289.37 1855.87 3289.95 1856.31Z" fill="#FFFFFF" fill-rule="evenodd"/></g></svg>