<svg width="56" height="55" xmlns="http://www.w3.org/2000/svg" xmlns:xlink="http://www.w3.org/1999/xlink" xml:space="preserve" overflow="hidden"><defs><clipPath id="clip0"><rect x="793" y="199" width="56" height="55"/></clipPath></defs><g clip-path="url(#clip0)" transform="translate(-793 -199)"><path d="M849 226.5C849 227.487 848.2 228.286 847.214 228.286L829.627 228.286 836.184 236.063C836.82 236.818 836.724 237.944 835.97 238.58 835.216 239.215 834.089 239.119 833.453 238.365L824.42 227.651C823.859 226.986 823.859 226.014 824.42 225.349L833.453 214.635C834.089 213.881 835.216 213.785 835.97 214.421 836.724 215.057 836.82 216.183 836.184 216.937L829.627 224.715 847.214 224.715C848.2 224.715 849 225.514 849 226.5Z" fill="#595959" fill-rule="evenodd"/><path d="M820.5 199C821.328 199 822 199.769 822 200.719L822 252.281C822 253.231 821.328 254 820.5 254 819.672 254 819 253.231 819 252.281L819 200.719C819 199.769 819.672 199 820.5 199Z" fill="#595959" fill-rule="evenodd"/><path d="M794.714 224.714C793.767 224.714 793 225.514 793 226.5 793 227.486 793.767 228.286 794.714 228.286L811.598 228.286 805.303 236.063C804.693 236.817 804.785 237.944 805.509 238.579 806.233 239.215 807.314 239.119 807.925 238.365L816.596 227.651C817.135 226.986 817.135 226.014 816.596 225.349L807.925 214.635C807.314 213.881 806.233 213.785 805.509 214.421 804.785 215.056 804.693 216.183 805.303 216.937L811.598 224.714 794.714 224.714Z" fill="#595959" fill-rule="evenodd"/></g></svg>