<svg width="78" height="64" xmlns="http://www.w3.org/2000/svg" xmlns:xlink="http://www.w3.org/1999/xlink" xml:space="preserve" overflow="hidden"><defs><clipPath id="clip0"><rect x="672" y="784" width="78" height="64"/></clipPath></defs><g clip-path="url(#clip0)" transform="translate(-672 -784)"><path d="M747.781 799.473C750.74 796.306 750.74 791.172 747.781 788.005L746.258 786.375C743.299 783.208 738.501 783.208 735.542 786.375L696.434 828.23C694.995 829.772 693.956 831.688 693.419 833.79L690.507 845.217 675.9 845.217C675.182 845.217 674.6 844.594 674.6 843.826 674.6 843.058 675.182 842.435 675.9 842.435L682.4 842.435C684.554 842.435 686.3 840.566 686.3 838.261 686.3 835.956 684.554 834.087 682.4 834.087L678.5 834.087C677.782 834.087 677.2 834.71 677.2 835.478 677.2 836.247 677.782 836.87 678.5 836.87L682.4 836.87C683.118 836.87 683.7 837.493 683.7 838.261 683.7 839.029 683.118 839.652 682.4 839.652L675.9 839.652C673.746 839.652 672 841.521 672 843.826 672 846.131 673.746 848 675.9 848L691.5 848C691.615 848 691.73 847.983 691.841 847.951L703.476 844.555C705.44 843.98 707.231 842.869 708.671 841.329ZM706.339 836.87 737.65 803.359 739.062 804.87 707.75 838.38ZM730.5 795.707 731.912 797.217 700.6 830.728 699.189 829.217ZM733.75 799.185 735.812 801.391 704.5 834.902 702.439 832.696ZM740.9 786.783C742.221 786.779 743.488 787.341 744.419 788.343L745.942 789.973C747.886 792.053 747.886 795.425 745.943 797.505 745.943 797.505 745.943 797.505 745.942 797.505L744.15 799.424 735.589 790.261 737.381 788.343C738.312 787.341 739.58 786.779 740.9 786.783ZM733.75 792.229 742.312 801.391 740.9 802.902 732.339 793.739ZM694.393 840.543 697.168 843.513 693.353 844.626ZM702.794 841.87 700.057 842.669 695.181 837.451 695.928 834.522C696.229 833.344 696.734 832.236 697.417 831.257L705.844 840.276C704.93 841.007 703.895 841.548 702.794 841.87Z" fill="#595959" fill-rule="evenodd"/></g></svg>