<?xml version="1.0" encoding="utf-8"?>
<svg version="1.1"
	 id="Layer_1" xmlns:dc="http://purl.org/dc/elements/1.1/" xmlns:cc="http://creativecommons.org/ns#" xmlns:rdf="http://www.w3.org/1999/02/22-rdf-syntax-ns#" xmlns:svg="http://www.w3.org/2000/svg" xmlns:sodipodi="http://sodipodi.sourceforge.net/DTD/sodipodi-0.dtd" xmlns:inkscape="http://www.inkscape.org/namespaces/inkscape"
	 xmlns="http://www.w3.org/2000/svg" xmlns:xlink="http://www.w3.org/1999/xlink" x="0px" y="0px" width="1440px" height="2560px"
	 viewBox="0 0 1440 2560" enable-background="new 0 0 1440 2560" xml:space="preserve">
<g transform="translate(0,-952.36218)">
	<path d="M614.713,1575.041c-6.264,165.12-27.635,262.965-130.051,410.402c-12.797-20.388-35.202-34.2-60.75-34.2H164.713
		c-39.391,0-72,32.608-72,72v518.399c0,39.391,32.609,72,72,72h259.199c24.836,0,46.88-12.945,59.85-32.398
		c14.977,12.066,28.836,22.904,43.2,31.5c23.745,14.204,50.583,22.746,87.3,26.55c73.429,7.604,193.931,1.984,472.051,3.149
		c6.532-0.145,12.999-2.547,18-6.75c55.97-45.658,80.278-89.385,91.35-138.601c5.447-1.677,10.373-5.013,13.95-9.45
		c41.856-52.312,57.001-112.668,47.25-164.7c4.01-1.857,7.583-4.655,10.351-8.102c48.891-57.354,58.764-130.798,41.399-186.3
		c29.867-35.325,42.213-76.764,37.801-115.2c-7.036-48.649-42.371-97.543-87.301-105.3h-370.8
		c22.168-145.85,7.472-279.892-41.851-366.749c-26.63-46.891-65.46-73.13-103.949-78.751
		C674.983,1453.613,620.494,1495.982,614.713,1575.041L614.713,1575.041z M722.259,1519.242
		c27.884-2.91,58.971,18.758,74.248,50.398c42.118,74.17,59.599,212.894,31.051,361.802c-3.169,16.609,11.438,34.234,28.349,34.198
		h395.102c21.62,11.094,35.515,30.188,38.251,54c2.646,23.067-6.735,50.188-30.151,75.602H1057.06
		c-15.219,0-29.251,13.583-29.251,28.8c0,15.218,14.035,29.017,29.251,28.8h198.449c8.646,31.809,2,74.146-26.551,115.2H1057.06
		c-15.218,0-29.251,13.583-29.251,28.8c0,15.219,14.035,29.019,29.251,28.801h140.849c8.647,31.809,2,74.145-26.549,115.2h-114.3
		c-15.218,0-29.251,13.584-29.251,28.8c0,15.219,14.035,29.018,29.251,28.801h79.649c-8.879,30.811-25.121,54.44-62.551,86.399
		c-267.664-0.921-391.776,3.3-454.051-3.149c-31.752-3.288-46.661-7.954-63.449-18c-15.13-9.051-33.651-25.018-60.751-46.801v-449.1
		c133.818-170.197,169.779-313.292,176.4-490.5C680.739,1538.687,700.57,1521.507,722.259,1519.242L722.259,1519.242z
		 M164.709,2008.841l259.198,0.001c8.477,0,14.4,5.923,14.4,14.4v518.4c0,8.476-5.923,14.399-14.4,14.399H164.709
		c-8.477,0-14.4-5.923-14.4-14.399v-518.401C150.309,2014.766,156.232,2008.841,164.709,2008.841L164.709,2008.841z
		 M294.308,2368.393c-23.859,0-43.2,19.343-43.2,43.2c0,23.858,19.341,43.2,43.2,43.2c23.856,0,43.2-19.342,43.2-43.2
		S318.166,2368.393,294.308,2368.393z"/>
</g>
</svg>
