<svg width="54" height="55" xmlns="http://www.w3.org/2000/svg" xmlns:xlink="http://www.w3.org/1999/xlink" xml:space="preserve" overflow="hidden"><defs><clipPath id="clip0"><rect x="4271" y="201" width="54" height="55"/></clipPath></defs><g clip-path="url(#clip0)" transform="translate(-4271 -201)"><path d="M4298.03 201C4312.94 201.015 4325.02 213.34 4325 228.528 4324.98 243.716 4312.88 256.016 4297.97 256 4283.06 255.985 4270.98 243.66 4271 228.473 4271 228.458 4271 228.443 4271 228.429 4271.04 213.258 4283.13 200.985 4298.03 201ZM4295.96 221.9 4295.96 221.9C4294.34 221.9 4292.75 221.9 4291.15 221.9 4290.8 221.903 4290.45 221.953 4290.11 222.049 4289.7 222.136 4289.38 222.477 4289.32 222.901 4289.21 223.362 4289.44 223.84 4289.86 224.034 4290.38 224.281 4290.94 224.434 4291.51 224.485 4293.01 224.557 4293.62 225.228 4293.39 226.801 4292.97 229.743 4292.4 232.664 4291.91 235.601 4291.58 237.581 4291.31 239.566 4290.99 241.546 4290.56 244.214 4293 246.716 4294.94 247.046 4296.09 247.21 4297.25 247.285 4298.41 247.272 4300.9 247.269 4303.27 246.222 4304.97 244.379 4305.28 244.088 4305.51 243.723 4305.65 243.317 4305.71 242.962 4305.63 242.596 4305.42 242.305 4305.17 242.143 4304.85 242.109 4304.57 242.212 4304.13 242.36 4303.73 242.668 4303.3 242.861 4302.8 243.101 4302.27 243.285 4301.73 243.411 4300.9 243.617 4300.07 243.103 4299.86 242.262 4299.85 242.18 4299.83 242.097 4299.83 242.014 4299.73 241.502 4299.72 240.979 4299.78 240.463 4299.96 239.187 4300.22 237.922 4300.45 236.657 4301.06 233.206 4301.69 229.754 4302.32 226.3 4302.49 225.354 4302.78 224.425 4302.59 223.429 4302.53 222.52 4301.75 221.834 4300.86 221.898 4300.85 221.898 4300.84 221.899 4300.83 221.9 4299.21 221.9 4297.58 221.9 4295.96 221.9ZM4298.9 209.668C4296.2 209.547 4293.91 211.683 4293.79 214.439 4293.67 217.194 4295.77 219.526 4298.47 219.647 4301.18 219.767 4303.47 217.632 4303.59 214.876 4303.59 214.84 4303.59 214.803 4303.59 214.767 4303.67 212.047 4301.57 209.775 4298.9 209.679Z" fill="#595959" fill-rule="evenodd"/></g></svg>