<?xml version="1.0"?>
<svg width="1440" height="2560" xmlns="http://www.w3.org/2000/svg" xmlns:svg="http://www.w3.org/2000/svg" enable-background="new 0 0 1440 2560" version="1.1" xml:space="preserve">
 <g class="layer">
  <title>Layer 1</title>
  <g id="svg_1">
   <path d="m614.71,622.68c-6.26,165.12 -27.63,262.96 -130.05,410.4c-12.8,-20.39 -35.2,-34.2 -60.75,-34.2l-259.2,0c-39.39,0 -72,32.61 -72,72l0,518.4c0,39.39 32.61,72 72,72l259.2,0c24.84,0 46.88,-12.94 59.85,-32.4c14.98,12.07 28.84,22.91 43.2,31.5c23.75,14.21 50.59,22.75 87.3,26.55c73.43,7.61 193.93,1.99 472.05,3.15c6.54,-0.14 13,-2.55 18,-6.75c55.97,-45.66 80.28,-89.38 91.35,-138.6c5.45,-1.68 10.38,-5.01 13.95,-9.45c41.86,-52.31 57,-112.67 47.25,-164.7c4.01,-1.86 7.59,-4.66 10.35,-8.1c48.9,-57.36 58.77,-130.8 41.4,-186.3c29.87,-35.33 42.22,-76.77 37.8,-115.2c-7.03,-48.65 -42.37,-97.55 -87.3,-105.3l-370.8,0c22.17,-145.85 7.47,-279.89 -41.85,-366.75c-26.63,-46.89 -65.46,-73.13 -103.95,-78.75c-67.53,-8.93 -122.02,33.44 -127.8,112.5l0,0z" fill="black" id="svg_2"/>
   <path d="m722.26,566.88c27.88,-2.91 58.97,18.76 74.25,50.4c42.12,74.17 59.6,212.89 31.05,361.8c-3.17,16.61 11.44,34.23 28.35,34.2l395.1,0c21.62,11.09 35.51,30.19 38.25,54c2.65,23.07 -6.73,50.19 -30.15,75.6l-202.05,0c-15.22,0 -29.25,13.58 -29.25,28.8c0,15.22 14.03,29.02 29.25,28.8l198.45,0c8.64,31.81 2,74.15 -26.55,115.2l-171.9,0c-15.22,0 -29.25,13.58 -29.25,28.8c0,15.22 14.03,29.02 29.25,28.8l140.85,0c8.65,31.81 2,74.15 -26.55,115.2l-114.3,0c-15.22,0 -29.25,13.59 -29.25,28.8c0,15.22 14.03,29.02 29.25,28.8l79.65,0c-8.88,30.81 -25.12,54.44 -62.55,86.4c-267.67,-0.92 -391.78,3.3 -454.05,-3.15c-31.75,-3.29 -46.66,-7.95 -63.45,-18c-15.13,-9.05 -33.65,-25.02 -60.75,-46.8l0,-449.1c133.82,-170.19 169.78,-313.29 176.4,-490.5c8.43,-38.6 28.26,-55.78 49.95,-58.05l0,0z" fill="black" id="svg_3"/>
   <path d="m164.71,1056.48l259.2,0c8.47,0 14.4,5.92 14.4,14.4l0,518.4c0,8.48 -5.93,14.4 -14.4,14.4l-259.2,0c-8.48,0 -14.4,-5.93 -14.4,-14.4l0,-518.4c0,-8.48 5.92,-14.4 14.4,-14.4l0,0z" fill="black" id="svg_4"/>
   <circle cx="294.31" cy="1459.23" fill="#E5E5E5" id="svg_5" r="43.2"/>
  </g>
 </g>
</svg>