<svg width="41" height="54" xmlns="http://www.w3.org/2000/svg" xmlns:xlink="http://www.w3.org/1999/xlink" xml:space="preserve" overflow="hidden"><defs><clipPath id="clip0"><rect x="1965" y="86" width="41" height="54"/></clipPath></defs><g clip-path="url(#clip0)" transform="translate(-1965 -86)"><path d="M2000.61 107.519 1998.31 107.519 1998.31 96.1503C1998.31 90.5534 1993.77 85.9999 1988.2 85.9999L1982.8 85.9999C1977.23 85.9999 1972.69 90.5534 1972.69 96.1503L1972.69 107.519 1970.39 107.519C1967.42 107.519 1965 109.943 1965 112.932L1965 134.586C1965 137.576 1967.42 140 1970.39 140L2000.61 140C2003.58 140 2006 137.576 2006 134.586L2006 130.72 2006 126.08 2006 112.932C2006 109.943 2003.58 107.519 2000.61 107.519ZM1987.19 124.052 1987.19 129.173 1983.81 129.173 1983.81 124.052C1982.5 123.42 1981.59 122.07 1981.59 120.511 1981.59 118.347 1983.34 116.586 1985.5 116.586 1987.66 116.586 1989.41 118.347 1989.41 120.511 1989.41 122.07 1988.5 123.419 1987.19 124.052ZM1994.27 107.519 1976.73 107.519 1976.73 96.1503C1976.73 92.7919 1979.46 90.0601 1982.8 90.0601L1988.2 90.0601C1991.54 90.0601 1994.27 92.7919 1994.27 96.1503L1994.27 107.519Z" fill="#7F7F7F" fill-rule="evenodd"/></g></svg>