<svg width="217" height="84" xmlns="http://www.w3.org/2000/svg" xmlns:xlink="http://www.w3.org/1999/xlink" xml:space="preserve" overflow="hidden"><g transform="translate(294 -266)"><path d="M-288.234 326C-288.779 322.376-290.649 320.443-294 319.879-290.727 319.315-288.701 317.544-288.156 314-287.455 317.383-285.662 319.477-282 319.799-286.442 321.248-286.597 321.409-288.234 326Z" fill="#953381" fill-rule="evenodd"/><path d="M-252.34 299.19C-252.041 300.072-252.414 300.366-253.086 300.66-254.804 301.321-256.596 301.909-258.761 302.718-257.567 302.791-256.82 302.865-256.073 302.938-252.489 303.012-248.83 302.791-245.321 303.306-237.928 304.408-233 310.876-233.224 318.52-233.448 325.576-239.048 331.897-246.217 332.559-251.07 333-255.999 332.853-260.852 332.926-264.287 332.926-267.797 332.926-271.306 332.926-276.682 332.926-279.52 330.207-279.52 324.915-279.445 322.122-279.52 319.402-279.52 316.389-281.013 316.389-282.357 316.389-283.776 316.389-283.851 315.948-283.925 315.58-283.925 315.286-284 313.449-284 313.449-282.059 313.449-278.848 313.449-275.637 313.449-272.351 313.522-271.381 313.522-270.858 313.155-270.485 312.273-268.319 306.981-266.004 301.689-263.764 296.397-263.391 295.368-262.868 295-261.674 295" fill="#382D7D" fill-rule="evenodd"/><path d="M-274.925 316.273C-274.925 319.877-275 323.327-274.925 326.777-274.849 328.08-273.646 328.847-272.065 328.847-264.089 328.923-256.113 329-248.137 328.923-242.042 328.847-237 323.557-237 317.577-237.075 311.367-241.891 306.23-248.061 306.077-253.329 306-258.596 306.077-263.863 306.153-264.315 306.153-264.992 306.307-265.143 306.613-265.745 307.993-266.271 309.373-266.948 311.06-265.97 311.06-265.444 311.06-264.842 311.06-259.273 311.137-253.705 311.06-248.137 311.137-244.6 311.213-241.891 314.05-241.816 317.653-241.816 321.257-244.6 324.17-248.438 324.17-255.436 324.247-262.434 324.17-269.507 324.247-269.733 324.247-270.034 324.093-270.485 324.017-270.485 321.487-270.485 318.957-270.485 316.273-272.065 316.273-273.495 316.273-274.925 316.273Z" fill="#61CDB4" fill-rule="evenodd"/><path d="M-250.766 282.976C-251.87 283.707-253.857 283.268-255.475 283.268-260.111 283.341-264.674 283.415-269.309 283.415-270.34 283.415-270.855 283.854-271.223 284.805-273.43 290.073-275.638 295.415-277.845 300.756-278.213 301.634-278.581 302-279.611 302-282.334 301.927-284.983 301.927-288 301.927-288 298.854-288 295.854-288 292.927-288 288.317-288 283.78-288 279.171-288 274.927-285.057 272-280.789 272.073-273.945 272.073-267.175 272.073-260.332 272.073-255.991 272.073-252.164 273.463-249 276.537M-279.096 282.39C-278.287 281.585-277.33 280.561-276.521 279.756-277.404 278.878-278.36 277.927-279.096 277.122-279.906 277.927-280.862 278.951-281.672 279.756-280.862 280.634-279.906 281.585-279.096 282.39Z" fill="#0053A0" fill-rule="evenodd"/><path d="M-242.482 274.212C-243.586 273.911-244.544 273.61-245.87 273.233-242.703 270.822-239.83 268.486-236.589 266-236.368 270.144-236.221 273.836-236 277.979-237.031 277.226-237.841 276.623-238.799 275.945-239.02 276.548-239.241 277-239.462 277.527-241.156 281.445-242.776 285.438-244.397 289.432-244.765 290.486-245.354 290.788-246.459 290.788-252.13 290.788-257.875 290.863-263.547 290.788-264.725 290.788-265.241 291.164-265.683 292.295-267.819 297.719-270.102 303.144-272.238 308.568-272.606 309.473-273.048 309.849-274.079 309.849-278.057 309.849-281.96 309.849-285.938 309.925-287.042 310-287.632 309.699-287.411 308.568-287.19 307.514-288 305.932-285.864 306.082-282.918 306.233-279.898 306.158-276.878 306.308-275.626 306.384-274.963 305.856-274.521 304.651-272.459 299.301-270.249 293.952-268.187 288.603-267.745 287.397-267.156 287.021-265.977 287.021-260.232 287.096-254.487 287.021-248.742 286.945-248.153 286.945-247.343 286.493-247.122 286.041-245.575 282.349-244.102 278.658-242.629 274.89-242.555 274.74-242.555 274.514-242.482 274.212Z" fill="#953381" fill-rule="evenodd"/><path d="M-274.925 316.273C-273.495 316.273-272.065 316.273-270.485 316.273-270.485 318.957-270.485 321.487-270.485 324.017-270.034 324.093-269.733 324.247-269.507 324.247-262.434 324.17-255.436 324.247-248.438 324.17-244.6 324.17-241.816 321.257-241.816 317.653-241.891 314.05-244.6 311.213-248.137 311.137-253.705 311.06-259.273 311.137-264.842 311.06-265.444 311.06-265.97 311.06-266.948 311.06-266.271 309.373-265.745 307.993-265.143 306.613-264.992 306.307-264.315 306.153-263.863 306.153-258.596 306.077-253.329 306-248.061 306.077-241.891 306.23-237.075 311.367-237 317.577-237 323.557-242.042 328.847-248.137 328.923-256.113 329-264.089 328.923-272.065 328.847-273.646 328.847-274.849 328.08-274.925 326.777-275 323.327-274.925 319.877-274.925 316.273Z" fill="#61CDB4" fill-rule="evenodd"/><text font-family="Aptos,Aptos_MSFontService,sans-serif" font-weight="700" font-size="27" transform="translate(-221.57 326)">Broker </text><text font-family="Aptos,Aptos_MSFontService,sans-serif" font-weight="700" font-size="27" transform="translate(-136.444 326)">AiD</text></g></svg>