<?xml version="1.0" encoding="utf-8"?>
<!-- Generator: Adobe Illustrator 16.0.0, SVG Export Plug-In . SVG Version: 6.00 Build 0)  -->
<!DOCTYPE svg PUBLIC "-//W3C//DTD SVG 1.1//EN" "http://www.w3.org/Graphics/SVG/1.1/DTD/svg11.dtd">
<svg version="1.1" id="Layer_1" xmlns="http://www.w3.org/2000/svg" xmlns:xlink="http://www.w3.org/1999/xlink" x="0px" y="0px"
	 width="250px" height="100px" viewBox="0 0 250 100" enable-background="new 0 0 250 100" xml:space="preserve">
<line fill="none" stroke="#666666" stroke-width="0.5" stroke-miterlimit="10" x1="138.575" y1="16.5" x2="138.575" y2="83.5"/>
<g enable-background="new    ">
	<path fill="#323232" d="M181.828,57.924v-8.521c0-0.442,0.102-0.774,0.303-0.996s0.463-0.332,0.782-0.332
		c0.329,0,0.597,0.109,0.8,0.328c0.205,0.219,0.307,0.553,0.307,1v8.521c0,0.448-0.102,0.782-0.307,1.004
		c-0.203,0.222-0.471,0.332-0.8,0.332c-0.315,0-0.574-0.112-0.778-0.336S181.828,58.367,181.828,57.924z"/>
	<path fill="#323232" d="M188.158,52.185v0.243c0.354-0.467,0.742-0.81,1.162-1.029c0.42-0.219,0.904-0.328,1.449-0.328
		c0.531,0,1.006,0.116,1.424,0.347c0.418,0.231,0.73,0.559,0.938,0.981c0.133,0.246,0.219,0.512,0.258,0.797
		c0.04,0.285,0.06,0.649,0.06,1.092v3.748c0,0.403-0.093,0.708-0.276,0.915c-0.185,0.206-0.424,0.31-0.72,0.31
		c-0.3,0-0.544-0.105-0.73-0.317c-0.187-0.211-0.28-0.514-0.28-0.907v-3.357c0-0.663-0.092-1.171-0.276-1.523
		c-0.185-0.352-0.552-0.527-1.103-0.527c-0.359,0-0.687,0.107-0.982,0.321c-0.295,0.214-0.512,0.508-0.648,0.882
		c-0.099,0.3-0.148,0.86-0.148,1.682v2.523c0,0.408-0.094,0.714-0.283,0.918s-0.434,0.307-0.734,0.307
		c-0.29,0-0.529-0.105-0.715-0.317c-0.188-0.211-0.281-0.514-0.281-0.907v-5.821c0-0.384,0.084-0.67,0.251-0.859
		s0.396-0.284,0.687-0.284c0.177,0,0.336,0.042,0.479,0.126c0.143,0.083,0.257,0.209,0.343,0.376S188.158,51.943,188.158,52.185z"/>
	<path fill="#323232" d="M201.939,56.626c0,0.556-0.135,1.031-0.406,1.428c-0.27,0.396-0.67,0.695-1.198,0.899
		s-1.172,0.307-1.929,0.307c-0.724,0-1.344-0.11-1.859-0.332c-0.517-0.222-0.898-0.498-1.144-0.83c-0.246-0.332-0.369-0.665-0.369-1
		c0-0.221,0.079-0.41,0.236-0.567s0.356-0.236,0.598-0.236c0.212,0,0.374,0.052,0.487,0.155c0.112,0.103,0.221,0.248,0.324,0.435
		c0.207,0.359,0.453,0.627,0.741,0.805c0.288,0.177,0.68,0.266,1.177,0.266c0.403,0,0.734-0.09,0.992-0.27s0.387-0.385,0.387-0.616
		c0-0.354-0.133-0.612-0.401-0.774s-0.71-0.317-1.324-0.465c-0.693-0.172-1.258-0.353-1.693-0.542
		c-0.435-0.189-0.783-0.439-1.044-0.749s-0.391-0.691-0.391-1.144c0-0.403,0.12-0.784,0.361-1.144
		c0.24-0.359,0.596-0.646,1.066-0.859c0.469-0.214,1.036-0.321,1.7-0.321c0.521,0,0.989,0.055,1.405,0.162
		c0.416,0.108,0.762,0.254,1.041,0.436c0.277,0.183,0.488,0.384,0.634,0.605c0.146,0.221,0.218,0.438,0.218,0.648
		c0,0.231-0.078,0.421-0.232,0.568c-0.155,0.147-0.375,0.222-0.66,0.222c-0.207,0-0.383-0.06-0.527-0.178
		c-0.146-0.117-0.312-0.295-0.498-0.53c-0.152-0.197-0.332-0.354-0.539-0.473s-0.486-0.177-0.841-0.177
		c-0.364,0-0.667,0.077-0.907,0.232c-0.241,0.154-0.361,0.348-0.361,0.579c0,0.211,0.088,0.385,0.266,0.52
		c0.177,0.136,0.415,0.247,0.715,0.336c0.301,0.089,0.713,0.197,1.24,0.324c0.624,0.153,1.135,0.335,1.53,0.547
		c0.396,0.211,0.696,0.461,0.899,0.748C201.838,55.929,201.939,56.257,201.939,56.626z"/>
	<path fill="#323232" d="M208.875,58.123v-0.258c-0.241,0.305-0.494,0.561-0.76,0.768c-0.266,0.206-0.557,0.36-0.871,0.461
		s-0.674,0.151-1.076,0.151c-0.487,0-0.924-0.102-1.311-0.303c-0.386-0.201-0.685-0.479-0.896-0.834
		c-0.25-0.428-0.375-1.042-0.375-1.844v-3.991c0-0.403,0.09-0.705,0.272-0.904c0.182-0.199,0.423-0.299,0.723-0.299
		c0.306,0,0.551,0.101,0.737,0.303c0.188,0.202,0.281,0.502,0.281,0.9v3.224c0,0.468,0.039,0.859,0.117,1.177
		c0.079,0.317,0.221,0.565,0.425,0.745s0.48,0.27,0.83,0.27c0.339,0,0.659-0.101,0.959-0.303c0.3-0.201,0.519-0.465,0.657-0.789
		c0.112-0.285,0.169-0.91,0.169-1.874v-2.449c0-0.398,0.093-0.698,0.28-0.9s0.431-0.303,0.73-0.303s0.541,0.1,0.723,0.299
		s0.273,0.501,0.273,0.904v5.835c0,0.384-0.088,0.672-0.262,0.863c-0.175,0.192-0.4,0.288-0.676,0.288s-0.502-0.1-0.682-0.299
		S208.875,58.482,208.875,58.123z"/>
	<path fill="#323232" d="M214.77,56.353v1.683c0,0.408-0.096,0.714-0.287,0.918c-0.192,0.204-0.436,0.307-0.73,0.307
		c-0.291,0-0.529-0.104-0.717-0.31c-0.187-0.207-0.279-0.512-0.279-0.915v-5.607c0-0.904,0.326-1.357,0.98-1.357
		c0.335,0,0.576,0.106,0.723,0.317c0.148,0.212,0.229,0.523,0.244,0.937c0.24-0.413,0.488-0.725,0.742-0.937
		c0.252-0.211,0.591-0.317,1.014-0.317s0.834,0.106,1.232,0.317c0.398,0.212,0.598,0.492,0.598,0.841
		c0,0.246-0.086,0.449-0.255,0.609c-0.17,0.159-0.353,0.239-0.55,0.239c-0.074,0-0.252-0.045-0.535-0.137
		c-0.283-0.091-0.532-0.136-0.748-0.136c-0.295,0-0.537,0.077-0.723,0.232c-0.188,0.154-0.332,0.385-0.436,0.689
		s-0.176,0.668-0.215,1.088C214.789,55.235,214.77,55.748,214.77,56.353z"/>
	<path fill="#323232" d="M226.448,57.851l-0.517-1.357h-4.396l-0.517,1.387c-0.202,0.541-0.374,0.906-0.517,1.096
		s-0.377,0.284-0.701,0.284c-0.275,0-0.519-0.101-0.73-0.303c-0.211-0.201-0.316-0.431-0.316-0.686c0-0.148,0.023-0.301,0.073-0.458
		s0.13-0.376,0.243-0.656l2.768-7.023c0.078-0.202,0.173-0.444,0.283-0.727c0.111-0.283,0.229-0.518,0.354-0.705
		c0.126-0.187,0.29-0.338,0.494-0.453c0.204-0.116,0.456-0.174,0.757-0.174c0.305,0,0.559,0.058,0.763,0.174
		c0.204,0.115,0.369,0.264,0.495,0.446c0.125,0.182,0.23,0.377,0.316,0.586s0.195,0.488,0.328,0.838l2.826,6.979
		c0.221,0.531,0.332,0.918,0.332,1.158c0,0.251-0.104,0.481-0.313,0.69c-0.21,0.209-0.462,0.313-0.757,0.313
		c-0.172,0-0.319-0.031-0.442-0.093s-0.226-0.145-0.31-0.25c-0.084-0.106-0.174-0.269-0.27-0.487S226.518,58.018,226.448,57.851z
		 M222.11,54.848h3.231l-1.631-4.463L222.11,54.848z"/>
	<path fill="#323232" d="M231.273,50.134c-0.281,0-0.521-0.086-0.72-0.259c-0.199-0.172-0.299-0.415-0.299-0.73
		c0-0.285,0.103-0.52,0.306-0.704c0.205-0.185,0.441-0.276,0.713-0.276c0.26,0,0.492,0.083,0.693,0.251
		c0.201,0.167,0.303,0.41,0.303,0.729c0,0.311-0.099,0.553-0.295,0.728C231.777,50.046,231.543,50.134,231.273,50.134z
		 M232.27,52.214v5.821c0,0.403-0.096,0.708-0.288,0.915c-0.192,0.206-0.435,0.31-0.73,0.31c-0.295,0-0.534-0.105-0.72-0.317
		c-0.184-0.211-0.276-0.514-0.276-0.907v-5.762c0-0.398,0.093-0.698,0.276-0.9c0.186-0.202,0.425-0.303,0.72-0.303
		c0.296,0,0.538,0.101,0.73,0.303S232.27,51.855,232.27,52.214z"/>
	<path fill="#323232" d="M235.848,48.26h2.854c0.743,0,1.38,0.068,1.911,0.206s1.013,0.396,1.445,0.775
		c1.127,0.964,1.689,2.43,1.689,4.396c0,0.649-0.057,1.242-0.17,1.778s-0.287,1.02-0.523,1.449
		c-0.236,0.431-0.539,0.815-0.907,1.155c-0.29,0.261-0.607,0.47-0.952,0.627c-0.344,0.157-0.714,0.268-1.109,0.332
		c-0.396,0.063-0.843,0.096-1.34,0.096h-2.855c-0.398,0-0.697-0.061-0.899-0.181s-0.333-0.29-0.395-0.509s-0.093-0.503-0.093-0.853
		v-7.931c0-0.473,0.105-0.814,0.317-1.025C235.033,48.365,235.375,48.26,235.848,48.26z M236.695,49.993v7.341h1.66
		c0.363,0,0.648-0.01,0.855-0.029s0.421-0.069,0.643-0.147c0.221-0.079,0.412-0.189,0.574-0.332c0.733-0.62,1.1-1.688,1.1-3.202
		c0-1.067-0.16-1.866-0.482-2.397s-0.72-0.869-1.191-1.015c-0.473-0.145-1.043-0.218-1.712-0.218H236.695z"/>
</g>
<g>
	<polygon points="19.19,60.628 17.909,60.628 8.034,48.521 7.996,48.521 7.996,60.628 6.717,60.628 6.717,46.612 7.999,46.612 
		17.874,58.779 17.912,58.779 17.912,46.612 19.193,46.612 19.193,60.628 19.19,60.628 	"/>
	<path d="M32.422,56.762c0,3.103-2.244,4.019-4.712,4.019s-4.712-0.916-4.712-4.019v-5.959h1.282v5.959
		c0,1.663,0.885,2.745,3.431,2.745s3.431-1.104,3.431-2.745v-5.959h1.281V56.762L32.422,56.762z"/>
	<path d="M45.049,52.561c3.129,0.055,4.864,1.867,4.864,3.942s-1.696,4.28-6.708,4.28c-4.259,0-5.991-1.925-6.991-2.86l0.885-0.916
		c0.959,0.75,2.282,2.506,6.106,2.506c2.922,0,5.427-0.935,5.427-3.007c0-1.271-1.188-2.617-3.653-2.672l-3.242-0.055
		c-2.034-0.02-4.503-0.728-4.503-3.476c0-1.829,1.677-4.13,6.051-4.13c3.393,0,5.086,1.513,5.823,2l-0.792,0.952
		c-1.281-0.785-2.565-1.682-4.937-1.682c-3.524,0-4.863,1.72-4.863,2.879c0,1.7,1.581,2.167,3.222,2.184l3.315,0.054H45.049z"/>
	<path d="M63.12,56.762c0,3.103-2.244,4.019-4.712,4.019c-2.469,0-4.712-0.916-4.712-4.019v-5.959h1.281v5.959
		c0,1.663,0.885,2.745,3.431,2.745c2.545,0,3.431-1.104,3.431-2.745v-5.959h1.281V56.762L63.12,56.762L63.12,56.762L63.12,56.762z"
		/>
	<polygon fill="#312F80" points="89.144,60.628 87.513,60.628 82.856,48.409 78.202,60.628 76.703,60.628 72.032,51.978 
		67.362,60.628 65.718,60.628 71.29,49.791 72.774,49.791 77.421,58.396 82.103,46.117 83.615,46.117 89.144,60.628 89.144,60.628 	
		"/>
	<path fill="#1A1A1A" d="M131.971,47.354c-0.072-0.167-0.174-0.316-0.303-0.444s-0.281-0.229-0.447-0.3
		c-0.174-0.074-0.361-0.109-0.551-0.109s-0.377,0.039-0.551,0.109c-0.166,0.071-0.318,0.172-0.447,0.3s-0.23,0.278-0.303,0.444
		c-0.074,0.172-0.109,0.357-0.109,0.545c0,0.188,0.039,0.374,0.109,0.545c0.072,0.166,0.174,0.316,0.303,0.445
		c0.129,0.127,0.281,0.229,0.447,0.299c0.174,0.074,0.361,0.108,0.551,0.108s0.377-0.037,0.551-0.108
		c0.166-0.07,0.318-0.172,0.447-0.299c0.129-0.129,0.23-0.279,0.303-0.445c0.074-0.172,0.109-0.357,0.109-0.545
		C132.08,47.711,132.043,47.526,131.971,47.354L131.971,47.354z M130.668,49.134c-0.688,0-1.246-0.553-1.246-1.234
		s0.559-1.235,1.246-1.235s1.244,0.554,1.244,1.235S131.355,49.134,130.668,49.134L130.668,49.134z"/>
	<path fill="#1A1A1A" d="M131.148,48.308c-0.029-0.052-0.063-0.101-0.094-0.147c-0.063-0.089-0.123-0.163-0.184-0.218
		c0.021-0.003,0.043-0.008,0.063-0.013l0,0c0.008,0,0.018-0.006,0.023-0.006c0.078-0.024,0.143-0.06,0.186-0.106
		c0.063-0.068,0.096-0.15,0.096-0.248c0-0.076-0.018-0.147-0.057-0.21s-0.09-0.106-0.154-0.131
		c-0.066-0.024-0.162-0.038-0.291-0.038h-0.629v1.412h0.158v-0.644h0.193c0,0,0.014,0,0.021,0c0.076,0,0.121,0.006,0.148,0.011
		c0,0,0,0,0.002,0c0.01,0.002,0.02,0.005,0.027,0.011l0,0l0,0c0,0,0.006,0,0.012,0.003c0.01,0.005,0.021,0.011,0.035,0.021
		c0.02,0.014,0.045,0.033,0.072,0.06c0.061,0.06,0.141,0.158,0.234,0.316l0,0l0.135,0.218h0.184l-0.184-0.297L131.148,48.308
		L131.148,48.308z M130.27,47.319h0.479c0.111,0,0.193,0.024,0.246,0.071c0.053,0.046,0.08,0.109,0.08,0.18
		c0,0.049-0.014,0.096-0.041,0.139c-0.027,0.044-0.068,0.074-0.121,0.093c-0.051,0.02-0.121,0.028-0.209,0.028h-0.217l0,0h-0.217
		v-0.513V47.319L130.27,47.319z"/>
	<polygon fill="#312F80" points="110.65,60.628 108.792,60.628 103.291,41.932 97.785,60.628 96.027,60.628 90.516,46.157 
		84.998,60.628 83.134,60.628 89.641,43.557 91.387,43.557 96.882,57.978 102.409,39.217 104.168,39.217 110.65,60.628 
		110.65,60.628 	"/>
	<path d="M129.025,60.14c-0.811,0.434-1.688,0.641-2.707,0.641c-2.186,0-3.31-1.012-3.31-3.034v-6.398h-3.041v-1.093h3.041v-3.757
		h1.333v3.757h4.391v1.093h-4.391v6.273c0,1.363,0.665,1.96,2.081,1.96c0.811,0,1.543-0.186,2.209-0.56l0.395,1.115l0,0V60.14
		L129.025,60.14z"/>
	<polygon points="115.154,50.351 116.487,50.351 116.487,60.628 115.154,60.628 115.154,50.351 115.154,50.351 	"/>
	<polygon points="114.942,46.364 116.696,46.364 116.696,48.104 114.942,48.104 114.942,46.364 	"/>
</g>
<path fill="#0053A0" d="M161.493,23.784h-0.044c-0.881-0.088-0.925-0.749-0.925-0.837v-1.057c0-0.265-0.308-0.617-0.704-0.617
	s-0.705,0.352-0.705,0.617v1.057c0,0.088-0.044,0.749-0.925,0.837c-0.044,0-0.044,0-0.044,0c-8.982,0.836-15.94,7.97-15.94,16.645
	v1.366c1.013-1.63,3.214-2.774,5.813-2.774c2.643,0,4.932,1.188,5.901,2.862c0.88-1.541,2.817-2.642,5.151-2.862v14.618h1.453
	V39.064c2.334,0.176,4.272,1.321,5.152,2.862c0.969-1.673,3.215-2.862,5.901-2.862c2.598,0,4.8,1.145,5.813,2.774v-1.409
	C177.391,31.754,170.433,24.621,161.493,23.784z"/>
<path fill="#61CDB4" d="M150.707,54.223c0.065,0.882,1.658,3.826,1.658,3.826c1.667,1.796,2.584,6.576,2.995,9.39
	c1.242,0.061,5.738,0.042,6.75-0.059c-0.544-1.585-3.479-8.428-2.995-8.959c0.026-0.029,0.053-0.063,0.08-0.103
	c0.458-0.674,0.92-2.722,0.92-2.722c0.084-0.499,1.958-3.801,1.4-4.688c-0.735-1.169-1.079,0.106-1.079,0.106
	c-0.144,0.397-0.313,0.865-0.466,1.229c-0.005,0.01-0.153,0.234-0.156,0.244c-0.339,0.797-0.656,1.105-0.656,1.105l0.065-3.868
	c0.051-1.646-0.68-2.029-0.68-2.029c-1.03-0.234-0.733,2.11-0.733,2.11c0.065,1.048-0.777,2.185-0.777,2.185
	c0-0.498-0.151-4.158-0.151-4.158c-0.216-1.015-0.98-0.439-0.98-0.439c-0.3,0.399-0.621,4.67-0.621,4.67s-0.329-1.692-0.395-1.909
	c-0.007-0.023-0.266-1.832-0.266-1.832c-0.232-0.715-0.881-0.267-0.881-0.267c-0.583,0.165-0.501,1.994-0.501,1.994
	c0.114,1.646-0.388,4.721-0.388,4.721s-0.548-1.18-0.796-1.681c-0.249-0.498-0.897-0.715-0.897-0.715s-0.498-0.166-0.748,0.166
	c-0.219,0.29,0.187,0.874,0.291,1.016C150.682,53.568,150.667,53.683,150.707,54.223z"/>
<polygon fill="#0075B3" points="167.838,54.763 169.424,51.588 172.6,50.001 169.424,48.415 167.838,45.239 166.25,48.415 
	163.076,50.001 166.25,51.588 "/>
<polygon fill="#0075B3" points="172.6,52.515 171.012,55.688 167.838,57.276 171.012,58.862 172.6,62.039 174.186,58.862 
	177.361,57.276 174.186,55.688 "/>
</svg>
