<?xml version="1.0" encoding="utf-8"?>
<!-- Generator: Adobe Illustrator 16.0.0, SVG Export Plug-In . SVG Version: 6.00 Build 0)  -->
<!DOCTYPE svg PUBLIC "-//W3C//DTD SVG 1.1//EN" "http://www.w3.org/Graphics/SVG/1.1/DTD/svg11.dtd">
<svg version="1.1" id="Layer_1" xmlns="http://www.w3.org/2000/svg" xmlns:xlink="http://www.w3.org/1999/xlink" x="0px" y="0px"
	 width="250px" height="100px" viewBox="0 0 250 100" enable-background="new 0 0 250 100" xml:space="preserve">
<g>
	<line fill="none" stroke="#666666" stroke-width="0.5" stroke-miterlimit="10" x1="158.575" y1="16.5" x2="158.575" y2="83.5"/>
	<g>
		<path fill="#0053A0" d="M233.709,64.489c-0.447-0.148-0.893,0-1.042,0.446c-1.188,3.052-4.17,5.063-7.593,5.063
			c-0.371,0-0.672,0.225-0.744,0.521c-1.938,5.58-5.211,7.741-7.072,8.562c0.672-2.456,0.818-5.654-1.189-8.562l0,0l0,0
			c0-0.073-0.075-0.149-0.075-0.149s0,0,0-0.07c-0.076-0.075-0.076-0.075-0.149-0.15l0,0c-0.074-0.074-0.148-0.074-0.223-0.074
			c0,0,0,0-0.075,0c-0.073,0-0.149,0-0.228,0h-21.659c-4.466,0-8.113-3.646-8.113-8.114V44.465c0-0.446-0.372-0.819-0.821-0.819
			h-0.744c-0.742,0-1.412,0.076-2.084,0.226c-0.521,0.073-0.97,0.224-1.414,0.444v-16.3c1.414-0.374,2.457-1.638,2.457-3.201
			c0-1.787-1.487-3.275-3.277-3.275c-1.786,0-3.271,1.488-3.271,3.275c0,1.563,1.041,2.829,2.455,3.201v16.971
			c0,0.073,0,0.073,0,0.148c-2.979,1.71-4.84,4.913-4.84,8.414c0,4.39,2.979,8.336,7.146,9.526c0.3,0.074,0.521,0.149,0.82,0.226
			c0.074,0,0.074,0,0.148,0c0.373,0,0.744-0.3,0.818-0.671c0.074-0.449-0.224-0.895-0.672-0.967
			c-0.222-0.077-0.445-0.077-0.67-0.148c-3.498-1.047-5.955-4.32-5.955-7.966c0-3.872,2.752-7.297,6.551-8.115
			c0.521-0.15,1.117-0.15,1.715-0.224v16.601c0,5.356,4.393,9.755,9.751,9.755h21.215c1.937,2.975,1.271,6.25,0.374,8.482
			c-0.074,0.299-0.074,0.596,0.148,0.82c0.146,0.225,0.371,0.299,0.668,0.299c0.078,0,0.078,0,0.149,0
			c0.299-0.074,6.403-1.119,9.604-9.602c3.795-0.226,7.072-2.535,8.485-6.033C234.38,65.159,234.154,64.714,233.709,64.489z"/>
		<path fill="#0075B3" d="M197.904,49.45c-2.311,0-4.096,1.86-4.096,4.097c0,2.231,1.859,4.095,4.096,4.095
			c2.308,0,4.094-1.859,4.094-4.095C201.998,51.311,200.21,49.45,197.904,49.45z M197.904,56.004c-1.34,0-2.456-1.116-2.456-2.457
			c0-1.339,1.116-2.455,2.456-2.455c1.341,0,2.457,1.116,2.457,2.455C200.361,54.962,199.316,56.004,197.904,56.004z"/>
		<path fill="#0075B3" d="M209.369,49.45c-2.313,0-4.098,1.86-4.098,4.097c0,2.231,1.86,4.095,4.098,4.095
			c2.306,0,4.092-1.859,4.092-4.095C213.461,51.311,211.675,49.45,209.369,49.45z M211.824,53.547c0,1.341-1.119,2.457-2.455,2.457
			c-1.342,0-2.458-1.118-2.458-2.457c0-1.341,1.119-2.457,2.458-2.457S211.824,52.206,211.824,53.547z"/>
		<path fill="#0075B3" d="M220.833,49.45c-2.312,0-4.099,1.86-4.099,4.097c0,2.231,1.863,4.095,4.099,4.095
			c2.229,0,4.095-1.859,4.095-4.095C224.928,51.311,223.063,49.45,220.833,49.45z M223.289,53.547c0,1.341-1.117,2.457-2.456,2.457
			c-1.343,0-2.459-1.118-2.459-2.457c0-1.341,1.12-2.457,2.459-2.457S223.289,52.206,223.289,53.547z"/>
		<path fill="#0053A0" d="M239.963,45.134c0-0.075,0-0.075,0-0.148V28.015c1.414-0.374,2.457-1.638,2.457-3.201
			c0-1.787-1.488-3.275-3.275-3.275c-1.783,0-3.275,1.488-3.275,3.275c0,1.563,1.043,2.829,2.457,3.201v16.3
			c-0.446-0.147-0.895-0.297-1.344-0.446c-0.444-0.074-0.893,0.148-0.965,0.595c-0.076,0.445,0.146,0.894,0.594,0.969
			c3.724,0.818,6.479,4.243,6.479,8.115c0,4.537-3.647,8.262-8.188,8.262V45.21c0-5.36-4.394-9.754-9.752-9.754h-31.49
			c-3.723,0-7.072,2.086-8.707,5.435c-0.148,0.223-0.225,0.447-0.299,0.745c-0.146,0.445,0,0.894,0.445,1.042
			c0.448,0.148,0.895,0,1.043-0.447c0.075-0.223,0.148-0.373,0.299-0.595c1.414-2.756,4.17-4.465,7.223-4.465h31.486
			c4.468,0,8.113,3.646,8.113,8.111v17.422c0,0.447,0.373,0.82,0.821,0.82h0.745c5.505,0,9.898-4.466,9.898-9.902
			C244.727,50.046,242.865,46.847,239.963,45.134z"/>
		<path fill="#61CDB4" d="M230.361,47.367c0.445,0,0.82-0.371,0.82-0.819v-0.816c0-3.647-2.979-6.551-6.551-6.551
			c-0.451,0-0.822,0.372-0.822,0.819c0,0.444,0.371,0.818,0.822,0.818c2.751,0,4.909,2.233,4.909,4.913v0.816
			C229.541,46.996,229.912,47.367,230.361,47.367z"/>
		<path fill="#61CDB4" d="M188.376,60.172c-0.451,0-0.821,0.371-0.821,0.819v0.816c0,3.646,2.978,6.553,6.553,6.553
			c0.447,0,0.816-0.373,0.816-0.818c0-0.446-0.369-0.82-0.816-0.82c-2.754,0-4.912-2.232-4.912-4.913v-0.817
			C189.193,60.543,188.823,60.172,188.376,60.172z"/>
		<text transform="matrix(1 0 0 1 184.2246 27.7295)" fill="#969696" font-family="'MyriadPro-Regular'" font-size="18.8867">Broker</text>
		<text transform="matrix(1 0 0 1 187.9346 84.8916)" fill="#323232" font-family="'ArialRoundedMTBold'" font-size="15.1093">AiD</text>
	</g>
	<g>
		<g>
			<g>
				<defs>
					<rect id="SVGID_1_" x="9.789" y="37.383" width="142.84" height="25.234"/>
				</defs>
				<clipPath id="SVGID_2_">
					<use xlink:href="#SVGID_1_"  overflow="visible"/>
				</clipPath>
				<polygon clip-path="url(#SVGID_2_)" points="24.354,62.428 22.856,62.428 11.329,48.277 11.282,48.277 11.282,62.428 
					9.789,62.428 9.789,46.048 11.287,46.048 22.815,60.265 22.861,60.265 22.861,46.048 24.359,46.048 24.359,62.422 				"/>
			</g>
			<g>
				<defs>
					<rect id="SVGID_3_" x="9.789" y="37.383" width="142.84" height="25.234"/>
				</defs>
				<clipPath id="SVGID_4_">
					<use xlink:href="#SVGID_3_"  overflow="visible"/>
				</clipPath>
				<g clip-path="url(#SVGID_4_)">
					<g>
						<defs>
							<rect id="SVGID_5_" x="9.789" y="37.383" width="142.84" height="25.234"/>
						</defs>
						<defs>
							<rect id="SVGID_6_" x="9.789" y="37.383" width="142.84" height="25.234"/>
						</defs>
						<clipPath id="SVGID_7_">
							<use xlink:href="#SVGID_5_"  overflow="visible"/>
						</clipPath>
						<clipPath id="SVGID_8_" clip-path="url(#SVGID_7_)">
							<use xlink:href="#SVGID_6_"  overflow="visible"/>
						</clipPath>
						<path clip-path="url(#SVGID_8_)" d="M39.776,57.898c0,3.645-2.604,4.719-5.471,4.719c-2.867,0-5.47-1.074-5.47-4.719v-6.994
							h1.49v6.994c0,1.955,1.027,3.225,3.985,3.225c2.958,0,3.984-1.293,3.984-3.225v-6.994h1.49v6.994H39.776L39.776,57.898z"/>
						<g clip-path="url(#SVGID_8_)">
							<g>
								<defs>
									<rect id="SVGID_9_" x="9.789" y="37.383" width="142.84" height="25.234"/>
								</defs>
								<defs>
									<rect id="SVGID_10_" x="9.789" y="37.383" width="142.84" height="25.234"/>
								</defs>
								<clipPath id="SVGID_11_">
									<use xlink:href="#SVGID_9_"  overflow="visible"/>
								</clipPath>
								<clipPath id="SVGID_12_" clip-path="url(#SVGID_11_)">
									<use xlink:href="#SVGID_10_"  overflow="visible"/>
								</clipPath>
								<path clip-path="url(#SVGID_12_)" d="M54.582,53.025c3.654,0.064,5.678,2.183,5.678,4.6c0,2.416-1.979,4.993-7.835,4.993
									c-4.975,0-6.999-2.245-8.163-3.337l1.032-1.066c1.124,0.873,2.664,2.918,7.131,2.918c3.413,0,6.335-1.092,6.335-3.508
									c0-1.484-1.384-3.051-4.266-3.118l-3.783-0.063c-2.375-0.022-5.258-0.852-5.258-4.055c0-2.137,1.96-4.816,7.062-4.816
									c3.961,0,5.938,1.766,6.798,2.332l-0.923,1.112c-1.499-0.913-2.992-1.959-5.766-1.959c-4.116,0-5.678,2.005-5.678,3.358
									c0,1.982,1.851,2.529,3.765,2.553l3.874,0.063L54.582,53.025L54.582,53.025z"/>
								<g clip-path="url(#SVGID_12_)">
									<g>
										<defs>
											<rect id="SVGID_13_" x="9.789" y="37.383" width="142.84" height="25.234"/>
										</defs>
										<defs>
											<rect id="SVGID_14_" x="9.789" y="37.383" width="142.84" height="25.234"/>
										</defs>
										<clipPath id="SVGID_15_">
											<use xlink:href="#SVGID_13_"  overflow="visible"/>
										</clipPath>
										<clipPath id="SVGID_16_" clip-path="url(#SVGID_15_)">
											<use xlink:href="#SVGID_14_"  overflow="visible"/>
										</clipPath>
										<path clip-path="url(#SVGID_16_)" d="M75.677,57.898c0,3.645-2.626,4.719-5.519,4.719c-2.893,0-5.519-1.074-5.519-4.719
											v-6.994h1.504v6.994c0,1.955,1.035,3.225,4.019,3.225c2.984,0,4.02-1.293,4.02-3.225v-6.994h1.503v6.994H75.677
											L75.677,57.898z"/>
										<g clip-path="url(#SVGID_16_)">
											<g>
												<defs>
													<rect id="SVGID_17_" x="9.789" y="37.383" width="142.84" height="25.234"/>
												</defs>
												<defs>
													<rect id="SVGID_18_" x="9.789" y="37.383" width="142.84" height="25.234"/>
												</defs>
												<clipPath id="SVGID_19_">
													<use xlink:href="#SVGID_17_"  overflow="visible"/>
												</clipPath>
												<clipPath id="SVGID_20_" clip-path="url(#SVGID_19_)">
													<use xlink:href="#SVGID_18_"  overflow="visible"/>
												</clipPath>
												<polygon clip-path="url(#SVGID_20_)" fill="#2B3998" points="106.063,62.428 104.161,62.428 98.728,48.154 
													93.295,62.428 91.546,62.428 86.101,52.323 80.651,62.428 78.733,62.428 85.234,49.771 86.964,49.771 92.387,59.821 
													97.847,45.477 99.614,45.477 106.063,62.428 												"/>
												<g clip-path="url(#SVGID_20_)">
													<g>
														<defs>
															<rect id="SVGID_21_" x="9.789" y="37.383" width="142.84" height="25.234"/>
														</defs>
														<defs>
															<rect id="SVGID_22_" x="9.789" y="37.383" width="142.84" height="25.234"/>
														</defs>
														<clipPath id="SVGID_23_">
															<use xlink:href="#SVGID_21_"  overflow="visible"/>
														</clipPath>
														<clipPath id="SVGID_24_" clip-path="url(#SVGID_23_)">
															<use xlink:href="#SVGID_22_"  overflow="visible"/>
														</clipPath>
														<polygon clip-path="url(#SVGID_24_)" fill="#2B3998" points="131.203,62.428 129.029,62.428 122.595,40.559 
															116.15,62.428 114.096,62.428 107.648,45.5 101.195,62.428 99.016,62.428 106.627,42.455 108.668,42.455 
															115.098,59.327 121.56,37.383 123.62,37.383 131.203,62.428 														"/>
														<g clip-path="url(#SVGID_24_)">
															<g>
																<defs>
																	<rect id="SVGID_25_" x="9.789" y="37.383" width="142.84" height="25.234"/>
																</defs>
																<defs>
																	<rect id="SVGID_26_" x="9.789" y="37.383" width="142.84" height="25.234"/>
																</defs>
																<clipPath id="SVGID_27_">
																	<use xlink:href="#SVGID_25_"  overflow="visible"/>
																</clipPath>
																<clipPath id="SVGID_28_" clip-path="url(#SVGID_27_)">
																	<use xlink:href="#SVGID_26_"  overflow="visible"/>
																</clipPath>
																<path clip-path="url(#SVGID_28_)" d="M152.629,61.871c-0.945,0.506-1.968,0.747-3.16,0.747
																	c-2.552,0-3.862-1.183-3.862-3.542v-7.465h-3.548v-1.275h3.548v-4.383h1.553v4.383h5.128v1.275h-5.128v7.321
																	c0,1.589,0.776,2.285,2.429,2.285c0.946,0,1.8-0.217,2.576-0.651l0.461,1.301L152.629,61.871L152.629,61.871z"/>
																<g clip-path="url(#SVGID_28_)">
																	<g>
																		<defs>
																			<rect id="SVGID_29_" x="9.789" y="37.383" width="142.84" height="25.234"/>
																		</defs>
																		<defs>
																			<rect id="SVGID_30_" x="9.789" y="37.383" width="142.84" height="25.234"/>
																		</defs>
																		<clipPath id="SVGID_31_">
																			<use xlink:href="#SVGID_29_"  overflow="visible"/>
																		</clipPath>
																		<clipPath id="SVGID_32_" clip-path="url(#SVGID_31_)">
																			<use xlink:href="#SVGID_30_"  overflow="visible"/>
																		</clipPath>
																		<polygon clip-path="url(#SVGID_32_)" points="136.441,50.428 137.965,50.428 137.965,62.428 136.441,62.428 
																																					"/>
																		<g clip-path="url(#SVGID_32_)">
																			<g>
																				<defs>
																					<rect id="SVGID_33_" x="9.789" y="37.383" width="142.84" height="25.234"/>
																				</defs>
																				<clipPath id="SVGID_34_">
																					<use xlink:href="#SVGID_33_"  overflow="visible"/>
																				</clipPath>
																				<polygon clip-path="url(#SVGID_34_)" points="136.154,45.762 138.249,45.762 138.249,47.762 136.154,47.762 
																																									"/>
																			</g>
																		</g>
																	</g>
																</g>
															</g>
														</g>
													</g>
												</g>
											</g>
										</g>
									</g>
								</g>
							</g>
						</g>
					</g>
				</g>
			</g>
		</g>
	</g>
</g>
</svg>
