<?xml version="1.0" encoding="UTF-8"?>
<svg version="1.1" viewBox="0 0 1604 1284" width="71" height="65" xmlns="http://www.w3.org/2000/svg">
<path transform="translate(752,3)" fill="#595959" d="m0 0h9l17 3 15 5 15 8 16 12 8 8 10 14 8 15 5 15 3 18 1 27-1 1058-3 19-4 12-8 16-10 14-8 9-13 10-16 9-16 6-8 1v2h-25l-5-5-11-7-43-29-44-29-43-29-20-13-171-114-28-19-5-4v-783l10-7 33-22 43-29 44-29 43-29 44-29 43-29 44-29 43-29 24-16z"/>
<path transform="translate(1010,324)" fill="#595959" d="m0 0h12l11 2 13 5 11 8 10 9 215 215 4 1 224-224 15-10 14-5 7-1h14l12 3 10 5 10 9 8 12 2 8h2v32l-2 1-4 9-9 14-12 13-213 213 2 4 220 220 9 12 9 18v33h-2l-6 12-9 10-11 7-12 4-13 1-14-2-12-5-10-6-11-10-8-7-210-210-4 1-217 217h-2v2l-10 8-16 8-10 3-12 1-14-2-12-5-11-9-7-10-5-12-1-4v-20l4-13 5-10 10-13 220-220 1-3-217-217-9-11-7-10-5-12-2-7-1-13 3-15 6-12 9-10 10-7 11-4z"/>
<path transform="translate(105,323)" fill="#595959" d="m0 0h139l27 1 1 5-1 634-1 1h-171l-17-3-16-6-15-8-11-9-7-6-9-11-8-13-7-15-5-21-1-12v-425l1-18 3-16 6-16 9-16 9-11 11-11 15-10 14-7 17-5z"/>
<path transform="translate(773,1283)" fill="#595959" d="m0 0 2 1z"/>
</svg>
