<svg width="87" height="87" xmlns="http://www.w3.org/2000/svg" xmlns:xlink="http://www.w3.org/1999/xlink" xml:space="preserve" overflow="hidden"><defs><clipPath id="clip0"><rect x="4221" y="2316" width="87" height="87"/></clipPath></defs><g clip-path="url(#clip0)" transform="translate(-4221 -2316)"><path d="M4264.5 2316C4240.48 2316 4221 2335.48 4221 2359.5 4221 2383.52 4240.48 2403 4264.5 2403 4288.52 2403 4308 2383.52 4308 2359.5 4308 2335.48 4288.52 2316 4264.5 2316ZM4267.79 2376.8C4267.81 2379.59 4266.24 2381.25 4263.5 2381.25 4260.76 2381.25 4258.93 2379.65 4258.92 2377.31 4258.92 2374.06 4260.38 2372.45 4263.27 2372.36 4265.63 2372.29 4268.08 2373.73 4267.79 2376.8ZM4273.88 2356.72C4272.64 2357.67 4271.35 2358.54 4270.1 2359.48 4268.27 2360.68 4267.21 2362.77 4267.34 2364.96 4267.4 2366.56 4266.37 2368 4264.83 2368.44 4263.2 2369.07 4261.34 2368.52 4260.32 2367.09 4260 2366.55 4259.82 2365.93 4259.81 2365.29 4259.68 2361.3 4261.54 2357.51 4264.76 2355.15 4266.16 2354.09 4267.47 2352.92 4268.7 2351.67 4269.29 2350.98 4269.64 2350.13 4269.72 2349.23 4269.92 2346.76 4268.34 2345.18 4265.79 2345.01 4262.71 2344.81 4260.12 2345.61 4258.31 2348.34 4257.54 2349.65 4256.03 2350.35 4254.53 2350.08 4251.92 2349.64 4250.8 2347.52 4251.87 2345.08 4252.99 2342.69 4254.91 2340.78 4257.31 2339.68 4259.76 2338.47 4262.45 2337.81 4265.19 2337.75 4266.73 2337.91 4268.27 2338.16 4269.79 2338.51 4274.43 2339.82 4277.18 2343.53 4277.53 2348.45 4277.87 2351.66 4276.48 2354.81 4273.87 2356.72Z" fill="#0075B3" fill-rule="evenodd"/></g></svg>