<svg width="168" height="152" xmlns="http://www.w3.org/2000/svg" xmlns:xlink="http://www.w3.org/1999/xlink" xml:space="preserve" overflow="hidden"><defs><clipPath id="clip0"><rect x="3524" y="1461" width="168" height="152"/></clipPath><linearGradient x1="3532.38" y1="1453.42" x2="3683.62" y2="1620.58" gradientUnits="userSpaceOnUse" spreadMethod="reflect" id="fill1"><stop offset="0" stop-color="#2A2076"/><stop offset="0.28" stop-color="#2A2076"/><stop offset="1" stop-color="#953381"/></linearGradient></defs><g clip-path="url(#clip0)" transform="translate(-3524 -1461)"><path d="M3692 1537.15C3692 1579.04 3658.5 1613 3617.17 1613L3609.68 1613 3609.68 1597.83 3617.17 1597.83C3650.56 1598.17 3677.9 1571 3678.23 1537.16 3678.56 1503.31 3651.76 1475.6 3618.36 1475.27 3584.97 1474.93 3557.63 1502.1 3557.3 1535.94 3557.26 1540.09 3557.64 1544.23 3558.42 1548.3L3565.91 1533.74 3579.23 1540.57 3564.26 1570.91C3562.94 1573.56 3560.23 1575.19 3557.3 1575.08 3556.13 1575.09 3554.97 1574.8 3553.93 1574.24L3524 1559.07 3530.74 1545.57 3543.91 1552.32C3535.48 1511.31 3561.45 1471.15 3601.91 1462.61 3642.38 1454.07 3682.01 1480.39 3690.43 1521.4 3691.49 1526.58 3692.02 1531.86 3692 1537.15Z" fill="url(#fill1)" fill-rule="evenodd"/></g></svg>