<svg width="61" height="62" xmlns="http://www.w3.org/2000/svg" xmlns:xlink="http://www.w3.org/1999/xlink" xml:space="preserve" overflow="hidden"><g transform="translate(-1342 -640)"><path d="M1342.04 667.128C1343.92 651.835 1356.84 640 1372.51 640 1380.05 640.002 1387.33 642.76 1393.02 647.764L1393.02 643.445C1393.02 641.542 1394.55 640 1396.43 640 1398.31 640 1399.84 641.542 1399.84 643.445L1399.84 657.222C1399.84 659.125 1398.31 660.667 1396.43 660.667L1382.74 660.667C1380.86 660.667 1379.33 659.125 1379.33 657.222 1379.33 655.32 1380.86 653.778 1382.74 653.778L1389.42 653.778C1384.87 649.361 1378.81 646.891 1372.51 646.889 1360.47 646.887 1350.31 655.927 1348.81 667.983 1348.62 669.875 1346.94 671.255 1345.07 671.063 1343.19 670.872 1341.83 669.183 1342.02 667.29 1342.02 667.236 1342.03 667.182 1342.04 667.128M1400.01 671.027C1401.88 671.264 1403.21 672.985 1402.97 674.872 1401.09 690.165 1388.17 702 1372.51 702 1364.98 701.998 1357.71 699.253 1352.03 694.271L1352.03 698.555C1352.03 700.458 1350.51 702 1348.62 702 1346.74 702 1345.21 700.458 1345.21 698.555L1345.21 684.778C1345.21 682.875 1346.74 681.333 1348.62 681.333L1362.27 681.333C1364.15 681.333 1365.68 682.875 1365.68 684.778 1365.68 686.68 1364.15 688.222 1362.27 688.222L1355.59 688.222C1360.14 692.64 1366.2 695.109 1372.51 695.111 1384.54 695.113 1394.7 686.072 1396.2 674.017 1396.44 672.13 1398.14 670.792 1400.01 671.027" fill="#595959" fill-rule="evenodd"/></g></svg>