<svg width="182" height="182" xmlns="http://www.w3.org/2000/svg" xmlns:xlink="http://www.w3.org/1999/xlink" xml:space="preserve" overflow="hidden"><g transform="translate(-4046 -2006)"><path d="M4107.01 2133 4116.42 2115.29 4171 2077 4107 2110.34Z" fill="#2A2076" fill-rule="evenodd"/><path d="M4137 2006C4086.74 2006 4046 2046.74 4046 2097 4046 2147.26 4086.74 2188 4137 2188 4187.26 2188 4228 2147.26 4228 2097 4228 2046.74 4187.26 2006 4137 2006ZM4192.33 2068.99 4151.73 2129.16C4150.51 2130.98 4148.11 2131.59 4146.16 2130.58L4129.9 2122.14 4107.51 2141.55C4106.71 2142.24 4105.7 2142.61 4104.68 2142.61 4104.08 2142.61 4103.47 2142.48 4102.9 2142.22 4101.36 2141.52 4100.37 2139.99 4100.36 2138.3L4100.23 2106.61 4076 2093.96C4074.38 2093.12 4073.47 2091.35 4073.72 2089.55 4073.96 2087.74 4075.32 2086.29 4077.1 2085.91L4187.85 2062.35C4189.57 2061.98 4191.34 2062.7 4192.33 2064.16 4193.31 2065.62 4193.31 2067.53 4192.33 2068.99Z" fill="#2A2076" fill-rule="evenodd"/></g></svg>