<svg width="74" height="74" xmlns="http://www.w3.org/2000/svg" xmlns:xlink="http://www.w3.org/1999/xlink" xml:space="preserve" overflow="hidden"><defs><clipPath id="clip0"><rect x="3975" y="2314" width="74" height="74"/></clipPath></defs><g clip-path="url(#clip0)" transform="translate(-3975 -2314)"><path d="M4044.28 2344.81 4044.16 2344.81C4043.55 2343.05 4042.03 2341.7 4040.17 2341.31 4039.18 2334.66 4035.85 2328.75 4031.05 2324.44 4031.73 2322.45 4030.88 2320.11 4029.1 2319 4023.98 2315.73 4018.07 2314 4012 2314 4005.77 2314 3999.73 2315.81 3994.53 2319.24 3992.77 2320.36 3991.99 2322.72 3992.68 2324.67 3988.02 2328.96 3984.8 2334.77 3983.82 2341.31 3981.96 2341.7 3980.45 2343.05 3979.83 2344.81L3979.71 2344.81C3977.12 2344.81 3975 2346.92 3975 2349.52L3975 2359.56C3975 2362.16 3977.12 2364.27 3979.71 2364.27L3979.83 2364.27C3980.42 2365.94 3981.8 2367.23 3983.51 2367.7 3983.24 2375.66 3989.66 2382.36 3997.66 2382.34L4000.97 2382.34C4002.06 2385.62 4006.51 2388 4012 2388 4018.33 2388 4023.29 2384.83 4023.29 2380.77 4023.29 2376.72 4018.33 2373.55 4012 2373.55 4006.51 2373.55 4002.06 2375.93 4000.97 2379.2L3997.65 2379.2C3991.35 2379.22 3986.34 2373.86 3986.65 2367.6 3988.78 2366.88 3990.33 2364.86 3990.33 2362.49L3990.33 2346.59C3990.33 2344.33 3988.93 2342.4 3986.96 2341.6 3987.85 2335.94 3990.63 2330.9 3994.64 2327.14 3996.19 2328.12 3998.19 2328.12 3999.73 2327.09 4003.38 2324.69 4007.62 2323.42 4012 2323.42 4016.27 2323.42 4020.44 2324.64 4024.03 2326.94 4025.62 2327.96 4027.62 2327.91 4029.13 2326.93 4033.26 2330.71 4036.14 2335.83 4037.04 2341.59 4035.07 2342.4 4033.67 2344.33 4033.67 2346.59L4033.67 2362.49C4033.67 2365.47 4036.1 2367.89 4039.07 2367.89 4041.43 2367.89 4043.43 2366.38 4044.17 2364.28L4044.29 2364.28C4046.88 2364.28 4049 2362.16 4049 2359.57L4049 2349.52C4049 2346.92 4046.88 2344.81 4044.28 2344.81ZM4012 2376.69C4016.8 2376.69 4020.15 2378.84 4020.15 2380.77 4020.15 2382.7 4016.8 2384.86 4012 2384.86 4007.19 2384.86 4003.85 2382.7 4003.85 2380.77 4003.85 2378.84 4007.19 2376.69 4012 2376.69Z" fill="#7F7F7F" fill-rule="evenodd"/><path d="M4012 2334C4002.62 2334 3995 2341.44 3995 2350.58 3995 2359.72 4002.62 2367.16 4012 2367.16 4014.47 2367.16 4016.83 2366.66 4019.05 2365.67L4025.48 2367.9C4026.89 2368.41 4028.1 2366.83 4027.42 2365.58 4026.51 2362.73 4026.65 2359.56 4027.82 2356.65 4028.6 2354.72 4029 2352.68 4029 2350.58 4029 2341.44 4021.37 2334 4012 2334ZM4024.84 2355.5C4023.74 2358.24 4023.38 2361.18 4023.78 2363.99L4019.49 2362.5C4019.08 2362.36 4018.62 2362.39 4018.23 2362.58 4016.29 2363.54 4014.19 2364.03 4012 2364.03 4004.39 2364.03 3998.2 2358 3998.2 2350.58 3998.2 2343.17 4004.39 2337.13 4012 2337.13 4019.61 2337.13 4025.8 2343.17 4025.8 2350.58 4025.8 2352.28 4025.48 2353.93 4024.84 2355.5Z" fill="#7F7F7F" fill-rule="evenodd"/><path d="M4014 2351C4014 2353.67 4010 2353.67 4010 2351 4010 2348.33 4014 2348.33 4014 2351" fill="#7F7F7F" fill-rule="evenodd"/><path d="M4006 2351C4006 2353.67 4002 2353.67 4002 2351 4002 2348.33 4006 2348.33 4006 2351" fill="#7F7F7F" fill-rule="evenodd"/><path d="M4022 2351C4022 2353.67 4018 2353.67 4018 2351 4018 2348.33 4022 2348.33 4022 2351" fill="#7F7F7F" fill-rule="evenodd"/></g></svg>