<svg width="50" height="66" xmlns="http://www.w3.org/2000/svg" xmlns:xlink="http://www.w3.org/1999/xlink" xml:space="preserve" overflow="hidden"><g transform="translate(-768 -783)"><path d="M782.053 813.674C782.471 813.612 782.874 813.924 782.92 814.345L786.017 839.321C786.079 839.758 785.769 840.148 785.351 840.195 785.32 840.195 785.289 840.195 785.258 840.195 784.871 840.195 784.546 839.914 784.484 839.524L781.387 814.549C781.325 814.111 781.635 813.721 782.053 813.674ZM803.947 813.659C804.365 813.721 804.659 814.111 804.613 814.533L801.516 839.508C801.454 839.914 801.129 840.195 800.742 840.195 800.711 840.195 800.68 840.195 800.649 840.195 800.216 840.133 799.921 839.742 799.983 839.305L803.08 814.33C803.126 813.908 803.529 813.612 803.947 813.659ZM793 813.659C793.434 813.659 793.774 814.002 793.774 814.439L793.774 839.415C793.774 839.852 793.434 840.195 793 840.195 792.566 840.195 792.226 839.852 792.226 839.415L792.226 814.439C792.226 814.002 792.566 813.659 793 813.659ZM772.221 807.415 778.182 846.439 807.818 846.439 813.764 807.415ZM771.323 801.171C770.889 801.171 770.548 801.514 770.548 801.951L770.548 805.073C770.548 805.51 770.889 805.854 771.323 805.854L814.678 805.854C815.111 805.854 815.452 805.51 815.452 805.073L815.452 801.951C815.452 801.514 815.111 801.171 814.678 801.171L771.338 801.171ZM783.71 785.561 783.71 791.805 802.29 791.805 802.29 785.561ZM778.043 785.561 772.468 799.61 813.532 799.61 807.957 785.561 803.839 785.561 803.839 792.586C803.839 793.022 803.498 793.366 803.065 793.366L782.935 793.366C782.502 793.366 782.161 793.022 782.161 792.586L782.161 785.561ZM777.516 784 808.484 784C808.794 784 809.088 784.187 809.212 784.5L815.235 799.688C816.241 799.938 817 800.859 817 801.951L817 805.073C817 806.119 816.303 807.009 815.359 807.305L809.243 847.345C809.196 847.719 808.871 848 808.484 848L777.516 848C777.145 848 776.819 847.719 776.757 847.345L770.641 807.305C769.697 807.009 769 806.119 769 805.073L769 801.951C769 800.859 769.759 799.938 770.781 799.672L776.804 784.484C776.912 784.187 777.206 784 777.516 784Z" stroke="#595959" stroke-width="2.29167" stroke-miterlimit="8" fill="#595959" fill-rule="evenodd"/></g></svg>